<?xml version="1.0" encoding="UTF-8"?>
<svg xmlns="http://www.w3.org/2000/svg" xmlns:xlink="http://www.w3.org/1999/xlink" width="18pt" height="18pt" viewBox="0 0 18 18" version="1.1">
<g id="surface1">
<path style=" stroke:none;fill-rule:evenodd;fill:rgb(9.803922%,9.019608%,9.019608%);fill-opacity:1;" d="M 9 1.421875 C 4.8125 1.421875 1.421875 4.816406 1.421875 9 C 1.421875 12.351562 3.59375 15.1875 6.605469 16.191406 C 6.980469 16.261719 7.121094 16.03125 7.121094 15.824219 C 7.121094 15.644531 7.117188 15.167969 7.109375 14.535156 C 5.003906 14.992188 4.558594 13.523438 4.558594 13.523438 C 4.210938 12.648438 3.714844 12.414062 3.714844 12.414062 C 3.027344 11.945312 3.765625 11.953125 3.765625 11.953125 C 4.523438 12.011719 4.929688 12.734375 4.929688 12.734375 C 5.601562 13.894531 6.703125 13.558594 7.132812 13.363281 C 7.203125 12.875 7.398438 12.539062 7.613281 12.351562 C 5.929688 12.160156 4.160156 11.507812 4.160156 8.605469 C 4.160156 7.777344 4.453125 7.101562 4.941406 6.570312 C 4.863281 6.378906 4.601562 5.609375 5.015625 4.566406 C 5.015625 4.566406 5.65625 4.363281 7.101562 5.34375 C 7.707031 5.175781 8.351562 5.09375 9 5.085938 C 9.640625 5.09375 10.292969 5.175781 10.898438 5.34375 C 12.34375 4.363281 12.984375 4.566406 12.984375 4.566406 C 13.398438 5.609375 13.136719 6.378906 13.058594 6.570312 C 13.539062 7.101562 13.832031 7.777344 13.832031 8.605469 C 13.832031 11.515625 12.0625 12.15625 10.371094 12.34375 C 10.640625 12.578125 10.890625 13.042969 10.890625 13.75 C 10.890625 14.765625 10.878906 15.578125 10.878906 15.828125 C 10.878906 16.035156 11.015625 16.265625 11.402344 16.191406 C 14.410156 15.1875 16.578125 12.351562 16.578125 9.003906 C 16.578125 4.816406 13.1875 1.421875 9 1.421875 Z M 9 1.421875 "/>
</g>
</svg>
