<?xml version="1.0" encoding="UTF-8"?>
<svg xmlns="http://www.w3.org/2000/svg" xmlns:xlink="http://www.w3.org/1999/xlink" width="18pt" height="18pt" viewBox="0 0 18 18" version="1.1">
<g id="surface1">
<path style=" stroke:none;fill-rule:nonzero;fill:rgb(0%,0%,0%);fill-opacity:1;" d="M 15.671875 1.5 L 2.328125 1.5 C 1.871094 1.5 1.5 1.871094 1.5 2.328125 L 1.5 15.671875 C 1.5 16.128906 1.871094 16.5 2.328125 16.5 L 9.511719 16.5 L 9.511719 10.691406 L 7.558594 10.691406 L 7.558594 8.425781 L 9.511719 8.425781 L 9.511719 6.757812 C 9.511719 4.820312 10.695312 3.765625 12.425781 3.765625 C 13.253906 3.765625 13.964844 3.828125 14.171875 3.855469 L 14.171875 5.878906 L 12.972656 5.878906 C 12.03125 5.878906 11.851562 6.328125 11.851562 6.984375 L 11.851562 8.429688 L 14.09375 8.429688 L 13.800781 10.691406 L 11.851562 10.691406 L 11.851562 16.5 L 15.671875 16.5 C 16.128906 16.5 16.5 16.128906 16.5 15.671875 L 16.5 2.328125 C 16.5 1.871094 16.128906 1.5 15.671875 1.5 Z M 15.671875 1.5 "/>
</g>
</svg>
