<?xml version="1.0" encoding="UTF-8"?>
<svg xmlns="http://www.w3.org/2000/svg" xmlns:xlink="http://www.w3.org/1999/xlink" width="18pt" height="18pt" viewBox="0 0 18 18" version="1.1">
<g id="surface1">
<path style=" stroke:none;fill-rule:evenodd;fill:rgb(71.372549%,73.72549%,74.901961%);fill-opacity:1;" d="M 11.25 2.25 L 6.75 2.25 L 6.75 3.75 L 2.25 3.75 L 2.25 5.25 L 15.75 5.25 L 15.75 3.75 L 11.25 3.75 Z M 3.75 6.75 L 3.75 15 C 3.75 15.828125 4.421875 16.5 5.25 16.5 L 12.75 16.5 C 13.578125 16.5 14.25 15.828125 14.25 15 L 14.25 6.75 L 12.75 6.75 L 12.75 15 L 5.25 15 L 5.25 6.75 Z M 6.75 6.75 L 6.75 13.5 L 8.25 13.5 L 8.25 6.75 Z M 9.75 6.75 L 9.75 13.5 L 11.25 13.5 L 11.25 6.75 Z M 9.75 6.75 "/>
</g>
</svg>
